<svg width="15" height="16" viewBox="0 0 15 16" fill="none" xmlns="http://www.w3.org/2000/svg">
<g id="date">
<path id="date_2" d="M13.585 1.5142H12.0982V0.795202C12.0982 0.662778 12.045 0.535786 11.9502 0.442148C11.8554 0.348511 11.7269 0.295898 11.5929 0.295898C11.4589 0.295898 11.3303 0.348511 11.2355 0.442148C11.1408 0.535786 11.0875 0.662778 11.0875 0.795202V1.51021H3.91146V0.795202C3.91146 0.662778 3.85822 0.535786 3.76344 0.442148C3.66867 0.348511 3.54013 0.295898 3.4061 0.295898C3.27207 0.295898 3.14354 0.348511 3.04877 0.442148C2.95399 0.535786 2.90075 0.662778 2.90075 0.795202V1.51021H1.415C1.04059 1.51021 0.681447 1.65683 0.416228 1.91793C0.151009 2.17904 0.00133717 2.53336 0 2.90328V4.15651H14.996V2.90328C14.9936 2.53475 14.844 2.18206 14.5797 1.92193C14.3155 1.66179 13.958 1.51525 13.585 1.5142Z" fill="#030303"/>
<path id="date_3" d="M0 13.9198C0.00133717 14.2897 0.151009 14.6441 0.416228 14.9052C0.681447 15.1663 1.04059 15.3129 1.415 15.3129H13.585C13.9594 15.3129 14.3186 15.1663 14.5838 14.9052C14.849 14.6441 14.9987 14.2897 15 13.9198V5.23193H0V13.9198ZM7.075 12.1773C7.11993 11.7072 7.26002 11.2509 7.48695 10.8354C7.71388 10.4199 8.02302 10.0538 8.396 9.75863C9.09541 9.03363 9.27835 8.80895 9.27835 8.24373C9.27835 7.81433 9.16616 7.47881 8.67192 7.47881C8.17769 7.47881 8.02709 7.8363 8.00384 8.40751H7.11138C7.08791 8.19397 7.11245 7.97795 7.18324 7.77487C7.25404 7.57179 7.36934 7.38665 7.52092 7.23269C7.6725 7.07873 7.85662 6.95974 8.06013 6.88421C8.26364 6.80867 8.48151 6.77846 8.6982 6.79574C8.90216 6.76759 9.10993 6.78596 9.30559 6.8494C9.50126 6.91285 9.67963 7.01972 9.82704 7.1618C9.97446 7.30388 10.087 7.4774 10.156 7.66909C10.2251 7.86079 10.2488 8.06554 10.2254 8.26769C10.2254 8.93776 10.0232 9.29328 9.26016 10.0313C8.78529 10.4355 8.40375 10.9358 8.1413 11.4982H10.382L10.2567 12.2282H7.075V12.1773ZM4.67657 7.27109C5.047 7.21978 5.39635 7.06999 5.68728 6.8377H6.30281V12.2302H5.38104V7.83631C5.14897 7.88971 4.91179 7.9185 4.67354 7.92219L4.67657 7.27109Z" fill="#030303"/>
</g>
</svg>
